<svg id="Capa_1" data-name="Capa 1" xmlns="http://www.w3.org/2000/svg" width="17" height="11.22" viewBox="0 0 17 11.22"><path d="M962.38,509.83a1.73,1.73,0,0,0,.62.38,2.14,2.14,0,0,0,1.81-.24,1.37,1.37,0,0,0,.55-.7h1.83a3.59,3.59,0,0,1-1.35,2.05,3.76,3.76,0,0,1-2.19.63,4.23,4.23,0,0,1-1.61-.31,3.39,3.39,0,0,1-1.22-.86,4,4,0,0,1-.77-1.33,4.83,4.83,0,0,1-.27-1.69,4.91,4.91,0,0,1,.28-1.66,3.7,3.7,0,0,1,1.39-1.86,3.75,3.75,0,0,1,2.21-.7,3.54,3.54,0,0,1,1.69.4,3.61,3.61,0,0,1,1.18,1.05,4.45,4.45,0,0,1,.67,1.51,6.27,6.27,0,0,1,.14,1.78h-5.45A2.13,2.13,0,0,0,962.38,509.83Zm-7.1-9.1a5.66,5.66,0,0,1,1.36.14,3.14,3.14,0,0,1,1.06.46,2.12,2.12,0,0,1,.68.83,3.2,3.2,0,0,1,.24,1.3,2.52,2.52,0,0,1-.36,1.39,2.67,2.67,0,0,1-1.06.91,2.55,2.55,0,0,1,1.43,1,3.22,3.22,0,0,1,.48,1.76,3.38,3.38,0,0,1-.3,1.44,2.79,2.79,0,0,1-.83,1,3.56,3.56,0,0,1-1.19.58,5.2,5.2,0,0,1-1.37.18h-5.06v-11Zm-.17,9.14a2.81,2.81,0,0,0,.65-.07,1.52,1.52,0,0,0,.54-.23,1.33,1.33,0,0,0,.38-.44,1.63,1.63,0,0,0,.14-.72,1.47,1.47,0,0,0-.46-1.21,1.85,1.85,0,0,0-1.2-.36h-2.51v3Zm9.66-4.23a1.46,1.46,0,0,0-.54-.34,1.36,1.36,0,0,0-.63-.09,1.6,1.6,0,0,0-.83.18,1.69,1.69,0,0,0-.52.44,1.73,1.73,0,0,0-.28.56,2.28,2.28,0,0,0-.1.52h3.38a2.36,2.36,0,0,0-.48-1.27Zm-9.79-.46a1.57,1.57,0,0,0,1-.3,1.23,1.23,0,0,0,.4-1,1.35,1.35,0,0,0-.13-.63.92.92,0,0,0-.35-.38,1.28,1.28,0,0,0-.5-.2,3.92,3.92,0,0,0-.59-.05h-2.17v2.57H955Zm10.69-3.71h-4.23v1.08h4.23Z" transform="translate(-950.36 -500.73)"/></svg>