<svg width="30" height="30" viewBox="0 0 30 30" fill="none" xmlns="http://www.w3.org/2000/svg">
<path d="M15 17.6753L3.22964 29.4457C2.86009 29.8152 2.41411 30 1.8917 30C1.36966 30 0.923874 29.8152 0.554324 29.4457C0.184775 29.0761 0 28.6303 0 28.1083C0 27.5859 0.184775 27.1399 0.554324 26.7704L12.3247 15L0.554324 3.22964C0.184775 2.86009 0 2.41411 0 1.8917C0 1.36966 0.184775 0.923873 0.554324 0.554323C0.923874 0.184774 1.36966 0 1.8917 0C2.41411 0 2.86009 0.184774 3.22964 0.554323L15 12.3247L26.7704 0.554323C27.1399 0.184774 27.5859 0 28.1083 0C28.6303 0 29.0761 0.184774 29.4457 0.554323C29.8152 0.923873 30 1.36966 30 1.8917C30 2.41411 29.8152 2.86009 29.4457 3.22964L17.6753 15L29.4457 26.7704C29.8152 27.1399 30 27.5859 30 28.1083C30 28.6303 29.8152 29.0761 29.4457 29.4457C29.0761 29.8152 28.6303 30 28.1083 30C27.5859 30 27.1399 29.8152 26.7704 29.4457L15 17.6753Z" fill="#F6D1CD"/>
</svg>
