<svg id="Capa_1" data-name="Capa 1" xmlns="http://www.w3.org/2000/svg" width="38.33" height="27.94" viewBox="0 0 38.33 27.94"><defs><style>.cls-1{fill:#ae4c61;}</style></defs><path class="cls-1" d="M950.68,466V446h22.07a9.43,9.43,0,0,1,2.91,7.27V466h-6.22V454.74a9.82,9.82,0,0,0-.94-4.79,5.77,5.77,0,0,0-3.28-2.52l-.07,0a7.66,7.66,0,0,1,.9,2.77,20.8,20.8,0,0,1,.22,3.06V466h-6.19V454.7a15.29,15.29,0,0,0-.29-3,7.25,7.25,0,0,0-.94-2.6,3.68,3.68,0,0,0-1.87-1.65l-.07,0V466Z" transform="translate(-937.34 -446.03)"/><path class="cls-1" d="M938.63,466v-.07q2.52-2.77,2.52-5a4.24,4.24,0,0,0-.18-1.22,7.15,7.15,0,0,0-.57-1.48c-.27-.58-.64-1.32-1.12-2.23a9,9,0,0,1-1.15-4.18,7.54,7.54,0,0,1,.61-2.84,9.77,9.77,0,0,1,1.8-2.88h6.73v.07a12,12,0,0,0-1.91,2.66,5.31,5.31,0,0,0-.57,2.38,5.07,5.07,0,0,0,.32,1.76,22,22,0,0,0,1,2.24,17.67,17.67,0,0,1,1.33,2.88,6.5,6.5,0,0,1,.39,2.23,8.24,8.24,0,0,1-.5,2.91,11,11,0,0,1-1.66,2.81Z" transform="translate(-937.34 -446.03)"/><rect class="cls-1" y="23.94" width="29" height="4"/><rect class="cls-1" x="32" y="23.94" width="6" height="4"/></svg>