<svg width="17" height="30" viewBox="0 0 17 30" fill="none" xmlns="http://www.w3.org/2000/svg">
<path d="M5.28922 15.0116L16.39 26.2696C16.8106 26.6961 17.0137 27.2111 16.9993 27.8146C16.9849 28.4181 16.7673 28.9331 16.3463 29.3596C15.9253 29.7865 15.4101 30 14.8007 30C14.1912 30 13.6762 29.7865 13.2557 29.3596L0.630789 16.5566C0.39876 16.3213 0.235513 16.0785 0.141047 15.8282C0.0470164 15.5778 -1.04298e-06 15.3057 -1.01728e-06 15.0116C-9.91536e-07 14.7171 0.0470165 14.4447 0.141047 14.1944C0.235513 13.9445 0.398761 13.7017 0.63079 13.466L13.2988 0.618588C13.7198 0.192108 14.2278 -0.0138463 14.8229 0.000722956C15.4175 0.0152922 15.9253 0.236037 16.3463 0.662959C16.7673 1.08988 16.9777 1.61238 16.9777 2.23047C16.9777 2.84856 16.7673 3.37084 16.3463 3.79732L5.28922 15.0116Z" fill="#F6D1CD"/>
</svg>
