<svg width="18" height="30" viewBox="0 0 18 30" fill="none" xmlns="http://www.w3.org/2000/svg">
<path d="M12.3997 14.9884L0.64583 3.73037C0.200568 3.30389 -0.0144571 2.7889 0.000753692 2.18538C0.0159645 1.58186 0.246432 1.06686 0.692155 0.640381C1.13788 0.21346 1.68339 0 2.3287 0C2.97401 0 3.51929 0.21346 3.96456 0.640381L17.3321 13.4434C17.5778 13.6787 17.7506 13.9215 17.8507 14.1718C17.9502 14.4222 18 14.6943 18 14.9884C18 15.2829 17.9502 15.5553 17.8507 15.8056C17.7506 16.0555 17.5778 16.2983 17.3321 16.534L3.91892 29.3814C3.4732 29.8079 2.93529 30.0138 2.30519 29.9993C1.67556 29.9847 1.13788 29.764 0.692155 29.337C0.246432 28.9101 0.023569 28.3876 0.023569 27.7695C0.023569 27.1514 0.246432 26.6292 0.692155 26.2027L12.3997 14.9884Z" fill="#F6D1CD"/>
</svg>
