<svg id="Capa_1" data-name="Capa 1" xmlns="http://www.w3.org/2000/svg" width="38" height="28" viewBox="0 0 38 28"><defs><style>.cls-1{fill:#ae4c61;}</style></defs><path class="cls-1" d="M954.12,546.17v-20H976a9.51,9.51,0,0,1,2.89,7.29v12.7h-6.18V534.91a10,10,0,0,0-.92-4.79,5.73,5.73,0,0,0-3.25-2.53l-.07,0a7.85,7.85,0,0,1,.89,2.77,22.41,22.41,0,0,1,.21,3.07v12.7h-6.14V534.88a15.5,15.5,0,0,0-.28-3,7.38,7.38,0,0,0-.93-2.59,3.67,3.67,0,0,0-1.86-1.66l-.07,0v18.51Z" transform="translate(-940.89 -526.18)"/><path class="cls-1" d="M942.17,546.17v-.07q2.51-2.79,2.5-5.05a4.36,4.36,0,0,0-.18-1.23,6.62,6.62,0,0,0-.57-1.48c-.26-.58-.63-1.32-1.1-2.24a9.11,9.11,0,0,1-1.15-4.18,7.78,7.78,0,0,1,.61-2.85,9.78,9.78,0,0,1,1.79-2.89h6.67v.08a11.67,11.67,0,0,0-1.89,2.67,5.31,5.31,0,0,0-.57,2.38,4.85,4.85,0,0,0,.32,1.76,20.3,20.3,0,0,0,1,2.24A16.29,16.29,0,0,1,951,538.2a6.28,6.28,0,0,1,.4,2.23,8.49,8.49,0,0,1-.5,2.92,11.35,11.35,0,0,1-1.64,2.82Z" transform="translate(-940.89 -526.18)"/><rect class="cls-1" y="23.99" width="28.75" height="4.01"/><rect class="cls-1" x="31.73" y="23.99" width="5.95" height="4.01"/></svg>