<svg id="Capa_1" data-name="Capa 1" xmlns="http://www.w3.org/2000/svg" width="53" height="40" viewBox="0 0 53 40"><defs><style>.cls-1{fill:#ae4c61;}</style></defs><path class="cls-1" d="M25.72,37.4V8.85h31q4.1,3.87,4.09,10.41V37.4H52.07V21.32a14.17,14.17,0,0,0-1.31-6.85,8.13,8.13,0,0,0-4.6-3.61l-.1.06a11.3,11.3,0,0,1,1.26,4,32,32,0,0,1,.3,4.38V37.4h-8.7V21.27a22.09,22.09,0,0,0-.4-4.27,10.54,10.54,0,0,0-1.32-3.71,5.2,5.2,0,0,0-2.63-2.37l-.1.05V37.4Z" transform="translate(-7.96 -8.85)"/><path class="cls-1" d="M8.8,37.4v-.1q3.54-4,3.54-7.21a6.68,6.68,0,0,0-.25-1.76,10.77,10.77,0,0,0-.81-2.11c-.37-.82-.9-1.89-1.57-3.19a13.1,13.1,0,0,1-1.62-6A11.11,11.11,0,0,1,9,13a13.94,13.94,0,0,1,2.53-4.13h9.46V9a17.14,17.14,0,0,0-2.68,3.81,7.62,7.62,0,0,0-.81,3.4,7.38,7.38,0,0,0,.45,2.53,30,30,0,0,0,1.47,3.19A26,26,0,0,1,21.24,26a9.41,9.41,0,0,1,.56,3.2,12.17,12.17,0,0,1-.71,4.17,15.74,15.74,0,0,1-2.33,4Z" transform="translate(-7.96 -8.85)"/><rect class="cls-1" y="33" width="40.24" height="7"/><rect class="cls-1" x="44.17" y="33" width="8.83" height="7"/></svg>