<svg width="14" height="14" viewBox="0 0 14 14" fill="none" xmlns="http://www.w3.org/2000/svg">
<path d="M5.17781 10.3556C3.73068 10.3556 2.50593 9.85443 1.50356 8.85206C0.501185 7.84969 0 6.62494 0 5.17781C0 3.73068 0.501185 2.50593 1.50356 1.50356C2.50593 0.501185 3.73068 0 5.17781 0C6.62494 0 7.84969 0.501185 8.85206 1.50356C9.85443 2.50593 10.3556 3.73068 10.3556 5.17781C10.3556 5.76197 10.2627 6.31294 10.0768 6.83073C9.89094 7.34851 9.63869 7.80654 9.32006 8.20484L13.7809 12.6657C13.927 12.8118 14 12.9976 14 13.2233C14 13.449 13.927 13.6349 13.7809 13.7809C13.6349 13.927 13.449 14 13.2233 14C12.9976 14 12.8118 13.927 12.6657 13.7809L8.20484 9.32006C7.80654 9.63869 7.34851 9.89094 6.83073 10.0768C6.31294 10.2627 5.76197 10.3556 5.17781 10.3556ZM5.17781 8.76245C6.17354 8.76245 7.01991 8.41394 7.71693 7.71693C8.41394 7.01991 8.76245 6.17354 8.76245 5.17781C8.76245 4.18208 8.41394 3.3357 7.71693 2.63869C7.01991 1.94168 6.17354 1.59317 5.17781 1.59317C4.18208 1.59317 3.3357 1.94168 2.63869 2.63869C1.94168 3.3357 1.59317 4.18208 1.59317 5.17781C1.59317 6.17354 1.94168 7.01991 2.63869 7.71693C3.3357 8.41394 4.18208 8.76245 5.17781 8.76245Z" fill="#603813"/>
</svg>
